G04 #@! TF.GenerationSoftware,KiCad,Pcbnew,7.0.10*
G04 #@! TF.CreationDate,2024-11-07T19:02:29+09:00*
G04 #@! TF.ProjectId,Flight_Master,466c6967-6874-45f4-9d61-737465722e6b,rev?*
G04 #@! TF.SameCoordinates,Original*
G04 #@! TF.FileFunction,Legend,Bot*
G04 #@! TF.FilePolarity,Positive*
%FSLAX46Y46*%
G04 Gerber Fmt 4.6, Leading zero omitted, Abs format (unit mm)*
G04 Created by KiCad (PCBNEW 7.0.10) date 2024-11-07 19:02:29*
%MOMM*%
%LPD*%
G01*
G04 APERTURE LIST*
G04 Aperture macros list*
%AMRoundRect*
0 Rectangle with rounded corners*
0 $1 Rounding radius*
0 $2 $3 $4 $5 $6 $7 $8 $9 X,Y pos of 4 corners*
0 Add a 4 corners polygon primitive as box body*
4,1,4,$2,$3,$4,$5,$6,$7,$8,$9,$2,$3,0*
0 Add four circle primitives for the rounded corners*
1,1,$1+$1,$2,$3*
1,1,$1+$1,$4,$5*
1,1,$1+$1,$6,$7*
1,1,$1+$1,$8,$9*
0 Add four rect primitives between the rounded corners*
20,1,$1+$1,$2,$3,$4,$5,0*
20,1,$1+$1,$4,$5,$6,$7,0*
20,1,$1+$1,$6,$7,$8,$9,0*
20,1,$1+$1,$8,$9,$2,$3,0*%
G04 Aperture macros list end*
%ADD10C,0.150000*%
%ADD11O,1.600000X1.200000*%
%ADD12C,1.600000*%
%ADD13C,3.200000*%
%ADD14C,1.400000*%
%ADD15O,1.400000X1.400000*%
%ADD16C,1.700000*%
%ADD17C,4.000000*%
%ADD18C,2.500000*%
%ADD19C,3.800000*%
%ADD20R,2.000000X2.000000*%
%ADD21O,2.000000X2.000000*%
%ADD22C,2.000000*%
%ADD23RoundRect,1.000000X-1.000000X-1.250000X1.000000X-1.250000X1.000000X1.250000X-1.000000X1.250000X0*%
%ADD24C,2.100000*%
%ADD25R,1.700000X1.700000*%
%ADD26O,1.700000X1.700000*%
%ADD27R,1.600000X1.600000*%
%ADD28O,1.600000X1.600000*%
%ADD29RoundRect,0.200000X-1.050000X0.800000X-1.050000X-0.800000X1.050000X-0.800000X1.050000X0.800000X0*%
%ADD30RoundRect,0.875000X0.875000X1.375000X-0.875000X1.375000X-0.875000X-1.375000X0.875000X-1.375000X0*%
%ADD31RoundRect,0.200000X1.050000X-0.800000X1.050000X0.800000X-1.050000X0.800000X-1.050000X-0.800000X0*%
%ADD32C,1.500000*%
%ADD33RoundRect,0.300000X-1.950000X1.200000X-1.950000X-1.200000X1.950000X-1.200000X1.950000X1.200000X0*%
%ADD34RoundRect,0.300000X1.950000X-1.200000X1.950000X1.200000X-1.950000X1.200000X-1.950000X-1.200000X0*%
G04 APERTURE END LIST*
D10*
X39230180Y35822493D02*
X38515895Y35822493D01*
X38515895Y35822493D02*
X38373038Y35774874D01*
X38373038Y35774874D02*
X38277800Y35679636D01*
X38277800Y35679636D02*
X38230180Y35536779D01*
X38230180Y35536779D02*
X38230180Y35441541D01*
X38230180Y36774874D02*
X38230180Y36298684D01*
X38230180Y36298684D02*
X39230180Y36298684D01*
X38325419Y37679636D02*
X38277800Y37632017D01*
X38277800Y37632017D02*
X38230180Y37489160D01*
X38230180Y37489160D02*
X38230180Y37393922D01*
X38230180Y37393922D02*
X38277800Y37251065D01*
X38277800Y37251065D02*
X38373038Y37155827D01*
X38373038Y37155827D02*
X38468276Y37108208D01*
X38468276Y37108208D02*
X38658752Y37060589D01*
X38658752Y37060589D02*
X38801609Y37060589D01*
X38801609Y37060589D02*
X38992085Y37108208D01*
X38992085Y37108208D02*
X39087323Y37155827D01*
X39087323Y37155827D02*
X39182561Y37251065D01*
X39182561Y37251065D02*
X39230180Y37393922D01*
X39230180Y37393922D02*
X39230180Y37489160D01*
X39230180Y37489160D02*
X39182561Y37632017D01*
X39182561Y37632017D02*
X39134942Y37679636D01*
X39230180Y38393922D02*
X38515895Y38393922D01*
X38515895Y38393922D02*
X38373038Y38346303D01*
X38373038Y38346303D02*
X38277800Y38251065D01*
X38277800Y38251065D02*
X38230180Y38108208D01*
X38230180Y38108208D02*
X38230180Y38012970D01*
X38230180Y39346303D02*
X38230180Y38870113D01*
X38230180Y38870113D02*
X39230180Y38870113D01*
X38325419Y40251065D02*
X38277800Y40203446D01*
X38277800Y40203446D02*
X38230180Y40060589D01*
X38230180Y40060589D02*
X38230180Y39965351D01*
X38230180Y39965351D02*
X38277800Y39822494D01*
X38277800Y39822494D02*
X38373038Y39727256D01*
X38373038Y39727256D02*
X38468276Y39679637D01*
X38468276Y39679637D02*
X38658752Y39632018D01*
X38658752Y39632018D02*
X38801609Y39632018D01*
X38801609Y39632018D02*
X38992085Y39679637D01*
X38992085Y39679637D02*
X39087323Y39727256D01*
X39087323Y39727256D02*
X39182561Y39822494D01*
X39182561Y39822494D02*
X39230180Y39965351D01*
X39230180Y39965351D02*
X39230180Y40060589D01*
X39230180Y40060589D02*
X39182561Y40203446D01*
X39182561Y40203446D02*
X39134942Y40251065D01*
X39230180Y40965351D02*
X38515895Y40965351D01*
X38515895Y40965351D02*
X38373038Y40917732D01*
X38373038Y40917732D02*
X38277800Y40822494D01*
X38277800Y40822494D02*
X38230180Y40679637D01*
X38230180Y40679637D02*
X38230180Y40584399D01*
X38230180Y41917732D02*
X38230180Y41441542D01*
X38230180Y41441542D02*
X39230180Y41441542D01*
X38325419Y42822494D02*
X38277800Y42774875D01*
X38277800Y42774875D02*
X38230180Y42632018D01*
X38230180Y42632018D02*
X38230180Y42536780D01*
X38230180Y42536780D02*
X38277800Y42393923D01*
X38277800Y42393923D02*
X38373038Y42298685D01*
X38373038Y42298685D02*
X38468276Y42251066D01*
X38468276Y42251066D02*
X38658752Y42203447D01*
X38658752Y42203447D02*
X38801609Y42203447D01*
X38801609Y42203447D02*
X38992085Y42251066D01*
X38992085Y42251066D02*
X39087323Y42298685D01*
X39087323Y42298685D02*
X39182561Y42393923D01*
X39182561Y42393923D02*
X39230180Y42536780D01*
X39230180Y42536780D02*
X39230180Y42632018D01*
X39230180Y42632018D02*
X39182561Y42774875D01*
X39182561Y42774875D02*
X39134942Y42822494D01*
X39230180Y43536780D02*
X38515895Y43536780D01*
X38515895Y43536780D02*
X38373038Y43489161D01*
X38373038Y43489161D02*
X38277800Y43393923D01*
X38277800Y43393923D02*
X38230180Y43251066D01*
X38230180Y43251066D02*
X38230180Y43155828D01*
X38230180Y44489161D02*
X38230180Y44012971D01*
X38230180Y44012971D02*
X39230180Y44012971D01*
X38325419Y45393923D02*
X38277800Y45346304D01*
X38277800Y45346304D02*
X38230180Y45203447D01*
X38230180Y45203447D02*
X38230180Y45108209D01*
X38230180Y45108209D02*
X38277800Y44965352D01*
X38277800Y44965352D02*
X38373038Y44870114D01*
X38373038Y44870114D02*
X38468276Y44822495D01*
X38468276Y44822495D02*
X38658752Y44774876D01*
X38658752Y44774876D02*
X38801609Y44774876D01*
X38801609Y44774876D02*
X38992085Y44822495D01*
X38992085Y44822495D02*
X39087323Y44870114D01*
X39087323Y44870114D02*
X39182561Y44965352D01*
X39182561Y44965352D02*
X39230180Y45108209D01*
X39230180Y45108209D02*
X39230180Y45203447D01*
X39230180Y45203447D02*
X39182561Y45346304D01*
X39182561Y45346304D02*
X39134942Y45393923D01*
%LPC*%
D11*
X38565000Y186565593D03*
X40470000Y185295593D03*
X38565000Y184025593D03*
D12*
X82000000Y201495593D03*
X77000000Y201495593D03*
D13*
X87000000Y124420000D03*
D14*
X94000000Y207535593D03*
D15*
X94000000Y202535593D03*
D16*
X119420000Y134420000D03*
D17*
X124500000Y134420000D03*
D16*
X129580000Y134420000D03*
D18*
X127040000Y139500000D03*
X120690000Y136960000D03*
D16*
X44420000Y154420000D03*
D17*
X49500000Y154420000D03*
D16*
X54580000Y154420000D03*
D18*
X52040000Y159500000D03*
X45690000Y156960000D03*
D12*
X48000000Y205895593D03*
X48000000Y210895593D03*
D14*
X57700000Y202195593D03*
D15*
X57700000Y207195593D03*
D19*
X96750000Y69400000D03*
X96750000Y21600000D03*
X105250000Y70600000D03*
X105250000Y20400000D03*
D18*
X99250000Y16250000D03*
X102750000Y16250000D03*
X99250000Y74750000D03*
D20*
X134000000Y182955593D03*
D21*
X134000000Y187955593D03*
D22*
X106650000Y194445593D03*
X100150000Y194445593D03*
X106650000Y198945593D03*
X100150000Y198945593D03*
D19*
X46750000Y69400000D03*
X46750000Y21600000D03*
X55250000Y70600000D03*
X55250000Y20400000D03*
D18*
X49250000Y16250000D03*
X52750000Y16250000D03*
X49250000Y74750000D03*
D13*
X41000000Y17500000D03*
D20*
X65000000Y91900000D03*
D21*
X65000000Y96900000D03*
D20*
X130500000Y64460000D03*
D21*
X130500000Y69460000D03*
D20*
X90000000Y151920000D03*
D21*
X90000000Y156920000D03*
D20*
X59000000Y91900000D03*
D21*
X59000000Y96900000D03*
D23*
X118700000Y174420000D03*
X130300000Y174420000D03*
D24*
X122000000Y166920000D03*
X124500000Y166920000D03*
X127000000Y166920000D03*
D14*
X67000000Y202455593D03*
D15*
X67000000Y207455593D03*
D14*
X48200000Y186095593D03*
D15*
X53200000Y186095593D03*
D20*
X115000000Y91900000D03*
D21*
X115000000Y96900000D03*
D16*
X94420000Y94420000D03*
D17*
X99500000Y94420000D03*
D16*
X104580000Y94420000D03*
D18*
X102040000Y99500000D03*
X95690000Y96960000D03*
D25*
X65400000Y211195593D03*
D26*
X67940000Y211195593D03*
X70480000Y211195593D03*
X73020000Y211195593D03*
D16*
X44420000Y94420000D03*
D17*
X49500000Y94420000D03*
D16*
X54580000Y94420000D03*
D18*
X52040000Y99500000D03*
X45690000Y96960000D03*
D16*
X94420000Y114420000D03*
D17*
X99500000Y114420000D03*
D16*
X104580000Y114420000D03*
D18*
X102040000Y119500000D03*
X95690000Y116960000D03*
D20*
X88800000Y32360000D03*
D21*
X88800000Y37360000D03*
D25*
X51675000Y211195593D03*
D26*
X54215000Y211195593D03*
X56755000Y211195593D03*
D16*
X119420000Y154420000D03*
D17*
X124500000Y154420000D03*
D16*
X129580000Y154420000D03*
D18*
X127040000Y159500000D03*
X120690000Y156960000D03*
D16*
X119420000Y94420000D03*
D17*
X124500000Y94420000D03*
D16*
X129580000Y94420000D03*
D18*
X127040000Y99500000D03*
X120690000Y96960000D03*
D20*
X90000000Y91900000D03*
D21*
X90000000Y96900000D03*
D27*
X92275000Y195095593D03*
D28*
X89735000Y195095593D03*
X87195000Y195095593D03*
X84655000Y195095593D03*
X82115000Y195095593D03*
X79575000Y195095593D03*
X77035000Y195095593D03*
X74495000Y195095593D03*
X74495000Y187475593D03*
X77035000Y187475593D03*
X79575000Y187475593D03*
X82115000Y187475593D03*
X84655000Y187475593D03*
X87195000Y187475593D03*
X89735000Y187475593D03*
X92275000Y187475593D03*
D16*
X44420000Y114420000D03*
D17*
X49500000Y114420000D03*
D16*
X54580000Y114420000D03*
D18*
X52040000Y119500000D03*
X45690000Y116960000D03*
D20*
X59000000Y111920000D03*
D21*
X59000000Y116920000D03*
D13*
X133000000Y17500000D03*
D14*
X70000000Y207535593D03*
D15*
X70000000Y202535593D03*
D13*
X41000000Y209495593D03*
D16*
X69420000Y154420000D03*
D17*
X74500000Y154420000D03*
D16*
X79580000Y154420000D03*
D18*
X77040000Y159500000D03*
X70690000Y156960000D03*
D16*
X69420000Y94420000D03*
D17*
X74500000Y94420000D03*
D16*
X79580000Y94420000D03*
D18*
X77040000Y99500000D03*
X70690000Y96960000D03*
D12*
X111000000Y58500000D03*
X111000000Y53500000D03*
D14*
X91000000Y207535593D03*
D15*
X91000000Y202535593D03*
D12*
X107300000Y211095593D03*
X102300000Y211095593D03*
D29*
X89000000Y23563500D03*
X89000000Y26103500D03*
X89000000Y28643500D03*
X89000000Y18483500D03*
D14*
X54200000Y202195593D03*
D15*
X54200000Y207195593D03*
D14*
X85500000Y46040000D03*
D15*
X85500000Y41040000D03*
D14*
X50700000Y202195593D03*
D15*
X50700000Y207195593D03*
D12*
X60400000Y191995593D03*
X60400000Y196995593D03*
X114800000Y58500000D03*
X114800000Y53500000D03*
D20*
X130500000Y74000000D03*
D21*
X130500000Y79000000D03*
D20*
X59000000Y151900000D03*
D21*
X59000000Y156900000D03*
D14*
X111000000Y46040000D03*
D15*
X111000000Y41040000D03*
D14*
X106200000Y202500000D03*
D15*
X101200000Y202500000D03*
D20*
X115000000Y131920000D03*
D21*
X115000000Y136920000D03*
D14*
X88000000Y207535593D03*
D15*
X88000000Y202535593D03*
D12*
X106900000Y206295593D03*
X101900000Y206295593D03*
D16*
X94420000Y154420000D03*
D17*
X99500000Y154420000D03*
D16*
X104580000Y154420000D03*
D18*
X102040000Y159500000D03*
X95690000Y156960000D03*
D30*
X126500000Y21000000D03*
X117500000Y21000000D03*
D24*
X124500000Y28000000D03*
X122000000Y28000000D03*
X119500000Y28000000D03*
X127500000Y48460000D03*
X127500000Y51000000D03*
X127500000Y53540000D03*
X127500000Y45920000D03*
X127500000Y56080000D03*
X119880000Y48460000D03*
X119880000Y51000000D03*
X119880000Y53540000D03*
D12*
X60700000Y211195593D03*
X60700000Y206195593D03*
D16*
X44420000Y134420000D03*
D17*
X49500000Y134420000D03*
D16*
X54580000Y134420000D03*
D18*
X52040000Y139500000D03*
X45690000Y136960000D03*
D14*
X64200000Y197035593D03*
D15*
X64200000Y192035593D03*
D12*
X82000000Y204495593D03*
X77000000Y204495593D03*
X41000000Y197995593D03*
X41000000Y202995593D03*
D20*
X89000000Y166880000D03*
D21*
X89000000Y171880000D03*
D19*
X71750000Y69400000D03*
X71750000Y21600000D03*
X80250000Y70600000D03*
X80250000Y20400000D03*
D18*
X74250000Y16250000D03*
X77750000Y16250000D03*
X74250000Y74750000D03*
D31*
X134000000Y200535593D03*
X134000000Y197995593D03*
X134000000Y195455593D03*
X134000000Y203075593D03*
X134000000Y192915593D03*
D16*
X69420000Y134420000D03*
D17*
X74500000Y134420000D03*
D16*
X79580000Y134420000D03*
D18*
X77040000Y139500000D03*
X70690000Y136960000D03*
D20*
X64000000Y165880000D03*
D21*
X64000000Y170880000D03*
D20*
X64000000Y175900000D03*
D21*
X64000000Y180900000D03*
D20*
X90000000Y111920000D03*
D21*
X90000000Y116920000D03*
D12*
X82000000Y207995593D03*
X77000000Y207995593D03*
D25*
X83000000Y211195593D03*
D26*
X85540000Y211195593D03*
X88080000Y211195593D03*
X90620000Y211195593D03*
X93160000Y211195593D03*
X95700000Y211195593D03*
D12*
X82000000Y198495593D03*
X77000000Y198495593D03*
D20*
X89000000Y175880000D03*
D21*
X89000000Y180880000D03*
D23*
X93700000Y174420000D03*
X105300000Y174420000D03*
D24*
X97000000Y166920000D03*
X99500000Y166920000D03*
X102000000Y166920000D03*
D11*
X38565000Y191565593D03*
X40470000Y190295593D03*
X38565000Y189025593D03*
D22*
X72000000Y197895593D03*
D20*
X65000000Y111920000D03*
D21*
X65000000Y116920000D03*
D20*
X114000000Y166880000D03*
D21*
X114000000Y171880000D03*
D32*
X110500000Y211155593D03*
X110500000Y208615593D03*
X110500000Y206075593D03*
X110500000Y203535593D03*
X110500000Y200995593D03*
X110500000Y198455593D03*
X110500000Y195915593D03*
X110500000Y193375593D03*
X110500000Y190835593D03*
X113040000Y190835593D03*
X115580000Y190835593D03*
X118120000Y190835593D03*
X120660000Y190835593D03*
X123200000Y190835593D03*
X125740000Y190835593D03*
X125740000Y193375593D03*
X125740000Y195915593D03*
X125740000Y198455593D03*
X125740000Y200995593D03*
X125740000Y203535593D03*
X125740000Y206075593D03*
X125740000Y208615593D03*
X125740000Y211155593D03*
D13*
X133000000Y209495593D03*
D14*
X45500000Y192535593D03*
D15*
X45500000Y187535593D03*
D14*
X115000000Y46040000D03*
D15*
X115000000Y41040000D03*
D27*
X56400000Y197495593D03*
D28*
X53860000Y197495593D03*
X51320000Y197495593D03*
X48780000Y197495593D03*
X48780000Y189875593D03*
X51320000Y189875593D03*
X53860000Y189875593D03*
X56400000Y189875593D03*
D14*
X73000000Y207535593D03*
D15*
X73000000Y202535593D03*
D12*
X96400000Y194300000D03*
X96400000Y189300000D03*
D16*
X94420000Y134420000D03*
D17*
X99500000Y134420000D03*
D16*
X104580000Y134420000D03*
D18*
X102040000Y139500000D03*
X95690000Y136960000D03*
D20*
X64000000Y32960000D03*
D21*
X64000000Y37960000D03*
D33*
X63800000Y18800000D03*
X63800000Y23500000D03*
X63800000Y28200000D03*
D23*
X43700000Y174420000D03*
X55300000Y174420000D03*
D24*
X47000000Y166920000D03*
X49500000Y166920000D03*
X52000000Y166920000D03*
D20*
X65000000Y131920000D03*
D21*
X65000000Y136920000D03*
D14*
X64200000Y207535593D03*
D15*
X64200000Y202535593D03*
D20*
X114000000Y175880000D03*
D21*
X114000000Y180880000D03*
D12*
X97000000Y202495593D03*
X97000000Y207495593D03*
D20*
X113500000Y66460000D03*
D21*
X113500000Y71460000D03*
D14*
X62140000Y186095593D03*
D15*
X57140000Y186095593D03*
D20*
X115000000Y111920000D03*
D21*
X115000000Y116920000D03*
D20*
X115000000Y151920000D03*
D21*
X115000000Y156920000D03*
D20*
X60000000Y165880000D03*
D21*
X60000000Y170880000D03*
D20*
X59000000Y131920000D03*
D21*
X59000000Y136920000D03*
D20*
X60000000Y175900000D03*
D21*
X60000000Y180900000D03*
D16*
X69420000Y114420000D03*
D17*
X74500000Y114420000D03*
D16*
X79580000Y114420000D03*
D18*
X77040000Y119500000D03*
X70690000Y116960000D03*
D20*
X90000000Y131920000D03*
D21*
X90000000Y136920000D03*
D12*
X60500000Y58000000D03*
X60500000Y53000000D03*
D14*
X85000000Y207535593D03*
D15*
X85000000Y202535593D03*
D23*
X68700000Y174420000D03*
X80300000Y174420000D03*
D24*
X72000000Y166920000D03*
X74500000Y166920000D03*
X77000000Y166920000D03*
D34*
X122500000Y76200000D03*
X122500000Y71500000D03*
X122500000Y66800000D03*
D20*
X64600000Y151900000D03*
D21*
X64600000Y156900000D03*
D16*
X119420000Y114420000D03*
D17*
X124500000Y114420000D03*
D16*
X129580000Y114420000D03*
D18*
X127040000Y119500000D03*
X120690000Y116960000D03*
D14*
X60500000Y46040000D03*
D15*
X60500000Y41040000D03*
D12*
X85500000Y58000000D03*
X85500000Y53000000D03*
%LPD*%
M02*
