M48
; DRILL file {KiCad 7.0.10} date Thu Nov  7 19:02:33 2024
; FORMAT={-:-/ absolute / metric / decimal}
; #@! TF.CreationDate,2024-11-07T19:02:33+09:00
; #@! TF.GenerationSoftware,Kicad,Pcbnew,7.0.10
; #@! TF.FileFunction,NonPlated,1,2,NPTH
FMAT,2
METRIC
; #@! TA.AperFunction,NonPlated,NPTH,ComponentDrill
T1C1.700
; #@! TA.AperFunction,NonPlated,NPTH,ComponentDrill
T2C3.200
; #@! TA.AperFunction,NonPlated,NPTH,ComponentDrill
T3C4.000
%
G90
G05
T1
X44.42Y154.42
X44.42Y134.42
X44.42Y114.42
X44.42Y94.42
X54.58Y154.42
X54.58Y134.42
X54.58Y114.42
X54.58Y94.42
X69.42Y154.42
X69.42Y134.42
X69.42Y114.42
X69.42Y94.42
X79.58Y154.42
X79.58Y134.42
X79.58Y114.42
X79.58Y94.42
X94.42Y154.42
X94.42Y134.42
X94.42Y114.42
X94.42Y94.42
X104.58Y154.42
X104.58Y134.42
X104.58Y114.42
X104.58Y94.42
X119.42Y154.42
X119.42Y134.42
X119.42Y114.42
X119.42Y94.42
X129.58Y154.42
X129.58Y134.42
X129.58Y114.42
X129.58Y94.42
T2
X41.0Y209.496
X41.0Y17.5
X87.0Y124.42
X133.0Y209.496
X133.0Y17.5
T3
X49.5Y154.42
X49.5Y134.42
X49.5Y114.42
X49.5Y94.42
X74.5Y154.42
X74.5Y134.42
X74.5Y114.42
X74.5Y94.42
X99.5Y154.42
X99.5Y134.42
X99.5Y114.42
X99.5Y94.42
X124.5Y154.42
X124.5Y134.42
X124.5Y114.42
X124.5Y94.42
M30
