M48
; DRILL file {KiCad 7.0.10} date Thu Nov  7 19:02:33 2024
; FORMAT={-:-/ absolute / metric / decimal}
; #@! TF.CreationDate,2024-11-07T19:02:33+09:00
; #@! TF.GenerationSoftware,Kicad,Pcbnew,7.0.10
; #@! TF.FileFunction,Plated,1,2,PTH
FMAT,2
METRIC
; #@! TA.AperFunction,Plated,PTH,ViaDrill
T1C0.400
; #@! TA.AperFunction,Plated,PTH,ViaDrill
T2C0.600
; #@! TA.AperFunction,Plated,PTH,ComponentDrill
T3C0.750
; #@! TA.AperFunction,Plated,PTH,ComponentDrill
T4C0.800
; #@! TA.AperFunction,Plated,PTH,ComponentDrill
T5C1.000
; #@! TA.AperFunction,Plated,PTH,ComponentDrill
T6C1.100
; #@! TA.AperFunction,Plated,PTH,ComponentDrill
T7C1.300
; #@! TA.AperFunction,Plated,PTH,ComponentDrill
T8C1.500
; #@! TA.AperFunction,Plated,PTH,ComponentDrill
T9C1.800
; #@! TA.AperFunction,Plated,PTH,ComponentDrill
T10C2.000
%
G90
G05
T1
X41.0Y196.096
X42.0Y188.0
X43.2Y194.9
X57.0Y163.0
X63.0Y163.0
X68.47Y203.18
X82.0Y162.0
X83.75Y129.5
X85.0Y104.5
X85.4Y87.75
X85.6Y163.5
X85.6Y162.0
X88.5Y87.75
X90.0Y104.5
X104.25Y129.75
X105.03Y105.536
X107.214Y163.114
X108.475Y185.196
X113.0Y105.5
X127.0Y182.5
X128.0Y186.496
X128.0Y183.496
X129.5Y186.496
T2
X38.0Y206.0
X38.0Y182.3
X38.0Y171.0
X38.0Y163.0
X38.0Y154.5
X38.0Y144.0
X38.0Y134.0
X38.0Y121.5
X38.0Y109.0
X38.0Y94.0
X38.0Y80.0
X38.0Y66.0
X38.0Y47.0
X38.0Y32.0
X38.0Y21.5
X38.16Y193.6
X38.25Y199.25
X38.6Y177.3
X42.0Y182.7
X42.5Y171.0
X42.5Y166.5
X42.5Y162.5
X42.5Y158.0
X42.5Y148.5
X42.5Y141.5
X42.5Y98.5
X42.5Y90.0
X42.5Y84.0
X42.6Y199.5
X43.6Y203.5
X44.0Y132.5
X44.0Y126.0
X44.0Y119.0
X44.0Y109.5
X44.2Y177.9
X44.5Y212.5
X44.5Y101.5
X44.57Y206.5
X45.0Y183.7
X45.25Y200.75
X45.75Y195.25
X46.0Y162.5
X46.0Y73.5
X46.0Y57.5
X46.0Y40.5
X46.0Y26.5
X46.37Y114.74
X46.5Y134.5
X47.0Y80.0
X47.5Y174.5
X47.6Y181.5
X47.75Y192.0
X48.0Y101.5
X48.2Y203.5
X48.2Y168.9
X48.5Y148.5
X48.5Y141.5
X49.5Y159.5
X49.5Y119.5
X49.5Y90.0
X49.75Y212.5
X49.91Y199.13
X50.0Y205.5
X50.0Y195.5
X50.0Y151.5
X50.37Y188.17
X51.0Y185.25
X51.0Y109.5
X51.25Y192.25
X51.5Y145.0
X51.5Y132.0
X51.5Y126.0
X51.5Y102.0
X51.5Y84.0
X51.5Y32.0
X51.8Y170.5
X52.2Y174.5
X52.2Y164.5
X52.5Y205.5
X52.5Y95.5
X52.5Y26.5
X52.5Y19.0
X52.6Y181.5
X53.0Y76.5
X53.75Y195.5
X54.0Y168.9
X54.5Y192.25
X54.5Y178.0
X54.5Y159.5
X54.5Y150.5
X54.5Y119.5
X55.0Y126.0
X55.0Y109.5
X55.5Y138.5
X55.5Y90.0
X55.64Y205.56
X56.4Y98.2
X56.5Y195.5
X56.5Y135.5
X56.98Y115.27
X57.0Y155.5
X57.12Y188.1
X57.5Y32.0
X57.5Y26.5
X57.8Y181.5
X57.8Y164.5
X58.0Y170.1
X58.5Y192.25
X58.5Y127.0
X58.5Y73.0
X58.5Y66.0
X58.5Y57.5
X58.5Y47.0
X58.5Y40.5
X58.5Y19.0
X58.5Y14.5
X58.75Y212.5
X58.75Y209.5
X59.0Y89.5
X59.0Y84.0
X59.0Y76.5
X59.5Y102.0
X60.0Y143.0
X60.0Y119.5
X60.4Y178.3
X60.5Y159.5
X60.63Y168.03
X61.0Y149.0
X61.5Y154.0
X61.53Y108.81
X62.0Y130.5
X62.0Y31.0
X62.23Y113.64
X62.25Y207.75
X62.25Y192.25
X62.6Y94.2
X62.81Y119.49
X63.0Y212.5
X63.5Y101.0
X63.5Y76.5
X63.5Y73.0
X63.5Y62.5
X63.6Y178.5
X63.75Y187.0
X64.0Y161.5
X64.0Y84.0
X64.5Y145.0
X64.5Y139.0
X64.5Y52.5
X65.0Y43.5
X65.1Y87.2
X66.0Y170.1
X66.0Y149.5
X66.4Y95.1
X66.48Y25.88
X66.5Y164.5
X67.0Y110.0
X67.5Y158.5
X67.5Y154.0
X67.5Y14.5
X67.6Y131.1
X67.75Y190.0
X67.8Y98.3
X68.0Y181.5
X68.0Y119.5
X68.0Y84.0
X68.43Y195.41
X68.5Y76.5
X68.5Y73.0
X68.5Y66.0
X68.5Y57.5
X68.5Y47.0
X68.5Y35.0
X69.0Y19.0
X69.25Y212.5
X69.5Y128.0
X69.5Y101.0
X70.0Y161.5
X70.0Y31.5
X70.0Y26.5
X71.0Y113.5
X71.82Y194.49
X72.5Y178.5
X72.5Y172.0
X73.0Y107.0
X73.4Y181.5
X73.5Y139.0
X74.4Y169.1
X74.5Y164.5
X74.5Y117.5
X74.5Y99.0
X74.5Y31.5
X74.5Y26.5
X74.75Y212.5
X74.75Y197.75
X75.0Y203.75
X75.0Y201.0
X75.0Y158.0
X75.8Y131.1
X76.0Y151.5
X76.0Y145.0
X76.0Y128.0
X76.0Y122.0
X76.0Y108.5
X76.8Y178.9
X76.8Y176.1
X77.0Y89.1
X77.0Y84.0
X77.0Y76.5
X77.0Y73.0
X77.0Y62.0
X77.0Y52.0
X77.0Y38.0
X77.2Y96.1
X77.4Y170.5
X77.5Y142.0
X78.0Y26.5
X78.5Y165.5
X79.0Y150.0
X79.0Y33.5
X79.2Y189.7
X79.2Y100.5
X79.5Y160.5
X79.5Y132.5
X79.5Y126.0
X79.5Y119.5
X79.75Y204.0
X79.75Y201.25
X79.75Y198.0
X80.0Y139.0
X80.0Y106.3
X80.11Y181.44
X80.25Y209.5
X80.75Y212.5
X81.0Y116.9
X82.5Y170.5
X82.5Y165.5
X82.5Y155.5
X82.5Y147.5
X82.5Y45.0
X82.5Y42.0
X82.5Y38.0
X83.0Y143.0
X83.0Y135.0
X83.0Y31.5
X83.5Y57.5
X83.8Y102.9
X84.0Y106.3
X84.2Y118.1
X84.5Y26.5
X84.5Y21.0
X84.5Y14.5
X84.8Y112.3
X85.0Y66.0
X85.2Y171.7
X85.4Y98.1
X85.4Y89.5
X85.45Y181.44
X85.5Y84.0
X85.5Y76.5
X85.5Y73.0
X86.5Y49.5
X86.5Y34.5
X86.75Y212.5
X86.8Y119.7
X86.8Y22.9
X87.0Y30.5
X87.22Y179.36
X87.87Y164.85
X88.0Y190.35
X88.0Y158.1
X88.0Y149.9
X88.2Y161.9
X88.4Y114.7
X88.4Y106.3
X88.5Y84.0
X88.5Y76.5
X88.5Y73.0
X88.5Y66.0
X88.5Y45.0
X89.0Y55.5
X89.4Y100.9
X89.8Y146.9
X89.8Y139.3
X90.0Y128.3
X90.2Y89.1
X90.2Y35.5
X90.4Y169.7
X90.69Y134.86
X91.4Y24.3
X91.75Y212.5
X91.77Y27.49
X91.8Y109.9
X92.5Y21.0
X92.5Y14.5
X93.06Y179.48
X94.0Y200.5
X94.2Y195.1
X94.5Y34.5
X94.8Y111.1
X95.6Y165.1
X96.0Y160.7
X96.0Y123.7
X96.2Y28.9
X96.4Y145.5
X96.8Y196.3
X97.0Y200.5
X97.25Y212.5
X97.5Y73.0
X97.72Y171.89
X97.8Y103.7
X98.5Y84.0
X98.5Y77.0
X98.6Y89.1
X99.2Y169.1
X99.2Y158.1
X99.4Y139.3
X99.5Y209.25
X99.5Y205.5
X99.5Y66.0
X99.5Y55.5
X99.5Y45.0
X99.6Y164.5
X99.73Y179.59
X99.76Y176.78
X99.8Y33.3
X100.0Y28.0
X100.4Y151.3
X100.8Y106.9
X101.0Y131.7
X101.0Y128.3
X101.36Y188.09
X101.6Y172.1
X101.8Y117.1
X102.8Y142.7
X103.0Y121.9
X103.0Y60.5
X103.0Y51.5
X103.0Y41.5
X103.0Y23.0
X104.0Y29.0
X104.5Y73.5
X104.6Y160.3
X104.8Y145.5
X104.8Y112.7
X104.8Y38.1
X104.96Y164.48
X105.0Y212.5
X105.0Y208.75
X105.0Y107.1
X105.0Y66.0
X105.2Y190.9
X105.2Y91.5
X105.6Y103.5
X106.0Y32.0
X106.77Y179.59
X107.0Y84.0
X107.0Y77.0
X107.0Y14.5
X107.59Y167.33
X108.18Y177.28
X108.8Y42.9
X109.0Y57.5
X109.0Y46.5
X109.0Y26.5
X109.8Y63.3
X110.91Y173.21
X111.05Y115.98
X111.07Y104.12
X111.14Y70.29
X111.16Y160.43
X111.2Y95.5
X111.2Y87.1
X111.4Y84.1
X111.5Y21.0
X112.13Y154.58
X112.4Y178.5
X112.5Y109.74
X113.0Y133.9
X113.0Y127.3
X113.0Y118.5
X113.0Y45.7
X113.0Y39.5
X113.0Y34.5
X113.0Y29.5
X113.2Y147.5
X113.4Y169.3
X113.5Y207.5
X113.5Y202.25
X113.5Y197.25
X113.6Y194.3
X114.0Y138.9
X114.0Y98.9
X114.2Y77.7
X115.5Y212.5
X115.6Y66.1
X115.62Y158.93
X115.86Y154.89
X116.16Y182.27
X116.2Y115.1
X116.4Y146.9
X116.4Y107.9
X116.75Y200.0
X116.75Y196.5
X116.8Y57.1
X117.0Y83.5
X117.0Y42.0
X117.0Y26.5
X117.0Y14.5
X117.8Y71.3
X118.4Y122.5
X119.0Y209.0
X119.2Y85.7
X119.5Y36.0
X119.75Y204.75
X120.2Y179.5
X120.2Y130.5
X120.3Y182.26
X120.4Y60.1
X120.4Y45.7
X120.5Y30.5
X120.8Y78.7
X121.8Y64.3
X122.0Y21.5
X122.14Y162.74
X122.16Y169.15
X123.0Y212.5
X123.0Y196.5
X123.2Y192.7
X123.2Y118.5
X123.4Y158.9
X123.8Y56.5
X123.8Y52.5
X123.8Y44.9
X124.0Y202.1
X124.25Y209.75
X124.8Y139.3
X125.22Y73.84
X125.4Y101.5
X125.8Y68.1
X126.0Y146.9
X126.13Y164.37
X126.2Y127.3
X126.4Y107.9
X126.8Y78.7
X127.14Y62.13
X128.5Y42.0
X128.5Y30.5
X128.5Y14.5
X129.0Y127.1
X129.2Y60.5
X129.2Y54.9
X129.2Y49.9
X129.25Y212.25
X129.43Y152.39
X129.6Y142.7
X129.6Y136.3
X129.8Y112.7
X129.8Y102.3
X129.8Y96.5
X129.8Y85.7
X129.8Y81.3
X130.04Y71.46
X130.4Y118.5
X130.6Y157.7
X130.6Y124.5
X130.8Y76.5
X130.8Y67.1
X131.37Y164.76
X132.0Y205.0
X132.81Y70.14
X133.26Y185.95
X135.75Y205.75
X135.75Y190.5
X135.75Y180.5
X135.75Y171.5
X135.75Y159.5
X135.75Y147.25
X135.75Y133.25
X135.75Y119.75
X135.75Y104.25
X135.75Y84.25
X135.75Y68.75
X136.0Y56.0
X136.0Y42.0
X136.0Y30.5
X136.0Y21.5
T3
X38.565Y191.566
X38.565Y189.026
X38.565Y186.566
X38.565Y184.026
X40.47Y190.296
X40.47Y185.296
T4
X41.0Y202.996
X41.0Y197.996
X45.5Y192.536
X45.5Y187.536
X48.0Y210.896
X48.0Y205.896
X48.2Y186.096
X48.78Y197.496
X48.78Y189.876
X50.7Y207.196
X50.7Y202.196
X51.32Y197.496
X51.32Y189.876
X53.2Y186.096
X53.86Y197.496
X53.86Y189.876
X54.2Y207.196
X54.2Y202.196
X56.4Y197.496
X56.4Y189.876
X57.14Y186.096
X57.7Y207.196
X57.7Y202.196
X59.0Y156.9
X59.0Y151.9
X59.0Y136.92
X59.0Y131.92
X59.0Y116.92
X59.0Y111.92
X59.0Y96.9
X59.0Y91.9
X60.0Y180.9
X60.0Y175.9
X60.0Y170.88
X60.0Y165.88
X60.4Y196.996
X60.4Y191.996
X60.5Y58.0
X60.5Y53.0
X60.5Y46.04
X60.5Y41.04
X60.7Y211.196
X60.7Y206.196
X62.14Y186.096
X64.0Y180.9
X64.0Y175.9
X64.0Y170.88
X64.0Y165.88
X64.0Y37.96
X64.0Y32.96
X64.2Y207.536
X64.2Y202.536
X64.2Y197.036
X64.2Y192.036
X64.6Y156.9
X64.6Y151.9
X65.0Y136.92
X65.0Y131.92
X65.0Y116.92
X65.0Y111.92
X65.0Y96.9
X65.0Y91.9
X67.0Y207.456
X67.0Y202.456
X70.0Y207.536
X70.0Y202.536
X73.0Y207.536
X73.0Y202.536
X74.495Y195.096
X74.495Y187.476
X77.0Y207.996
X77.0Y204.496
X77.0Y201.496
X77.0Y198.496
X77.035Y195.096
X77.035Y187.476
X79.575Y195.096
X79.575Y187.476
X82.0Y207.996
X82.0Y204.496
X82.0Y201.496
X82.0Y198.496
X82.115Y195.096
X82.115Y187.476
X84.655Y195.096
X84.655Y187.476
X85.0Y207.536
X85.0Y202.536
X85.5Y58.0
X85.5Y53.0
X85.5Y46.04
X85.5Y41.04
X87.195Y195.096
X87.195Y187.476
X88.0Y207.536
X88.0Y202.536
X88.8Y37.36
X88.8Y32.36
X89.0Y180.88
X89.0Y175.88
X89.0Y171.88
X89.0Y166.88
X89.735Y195.096
X89.735Y187.476
X90.0Y156.92
X90.0Y151.92
X90.0Y136.92
X90.0Y131.92
X90.0Y116.92
X90.0Y111.92
X90.0Y96.9
X90.0Y91.9
X91.0Y207.536
X91.0Y202.536
X92.275Y195.096
X92.275Y187.476
X94.0Y207.536
X94.0Y202.536
X96.4Y194.3
X96.4Y189.3
X97.0Y207.496
X97.0Y202.496
X101.2Y202.5
X101.9Y206.296
X102.3Y211.096
X106.2Y202.5
X106.9Y206.296
X107.3Y211.096
X111.0Y58.5
X111.0Y53.5
X111.0Y46.04
X111.0Y41.04
X113.5Y71.46
X113.5Y66.46
X114.0Y180.88
X114.0Y175.88
X114.0Y171.88
X114.0Y166.88
X114.8Y58.5
X114.8Y53.5
X115.0Y156.92
X115.0Y151.92
X115.0Y136.92
X115.0Y131.92
X115.0Y116.92
X115.0Y111.92
X115.0Y96.9
X115.0Y91.9
X115.0Y46.04
X115.0Y41.04
X130.5Y79.0
X130.5Y74.0
X130.5Y69.46
X130.5Y64.46
X134.0Y187.956
X134.0Y182.956
T5
X51.675Y211.196
X54.215Y211.196
X56.755Y211.196
X65.4Y211.196
X67.94Y211.196
X70.48Y211.196
X72.0Y197.896
X73.02Y211.196
X83.0Y211.196
X85.54Y211.196
X88.08Y211.196
X90.62Y211.196
X93.16Y211.196
X95.7Y211.196
X110.5Y211.156
X110.5Y208.616
X110.5Y206.076
X110.5Y203.536
X110.5Y200.996
X110.5Y198.456
X110.5Y195.916
X110.5Y193.376
X110.5Y190.836
X113.04Y190.836
X115.58Y190.836
X118.12Y190.836
X119.88Y53.54
X119.88Y51.0
X119.88Y48.46
X120.66Y190.836
X123.2Y190.836
X125.74Y211.156
X125.74Y208.616
X125.74Y206.076
X125.74Y203.536
X125.74Y200.996
X125.74Y198.456
X125.74Y195.916
X125.74Y193.376
X125.74Y190.836
X127.5Y56.08
X127.5Y53.54
X127.5Y51.0
X127.5Y48.46
X127.5Y45.92
T6
X47.0Y166.92
X49.5Y166.92
X52.0Y166.92
X72.0Y166.92
X74.5Y166.92
X77.0Y166.92
X89.0Y28.643
X89.0Y26.104
X89.0Y23.563
X89.0Y18.483
X97.0Y166.92
X99.5Y166.92
X100.15Y198.946
X100.15Y194.446
X102.0Y166.92
X106.65Y198.946
X106.65Y194.446
X119.5Y28.0
X122.0Y166.92
X122.0Y28.0
X124.5Y166.92
X124.5Y28.0
X127.0Y166.92
X134.0Y203.076
X134.0Y200.536
X134.0Y197.996
X134.0Y195.456
X134.0Y192.916
T7
X49.25Y74.75
X49.25Y16.25
X52.75Y16.25
X74.25Y74.75
X74.25Y16.25
X77.75Y16.25
X99.25Y74.75
X99.25Y16.25
X102.75Y16.25
T8
X45.69Y156.96
X45.69Y136.96
X45.69Y116.96
X45.69Y96.96
X52.04Y159.5
X52.04Y139.5
X52.04Y119.5
X52.04Y99.5
X70.69Y156.96
X70.69Y136.96
X70.69Y116.96
X70.69Y96.96
X77.04Y159.5
X77.04Y139.5
X77.04Y119.5
X77.04Y99.5
X95.69Y156.96
X95.69Y136.96
X95.69Y116.96
X95.69Y96.96
X102.04Y159.5
X102.04Y139.5
X102.04Y119.5
X102.04Y99.5
X120.69Y156.96
X120.69Y136.96
X120.69Y116.96
X120.69Y96.96
X127.04Y159.5
X127.04Y139.5
X127.04Y119.5
X127.04Y99.5
T9
X46.75Y69.4
X46.75Y21.6
X55.25Y70.6
X55.25Y20.4
X71.75Y69.4
X71.75Y21.6
X80.25Y70.6
X80.25Y20.4
X96.75Y69.4
X96.75Y21.6
X105.25Y70.6
X105.25Y20.4
T6
X64.65Y28.2G85X62.95Y28.2
G05
X64.65Y23.5G85X62.95Y23.5
G05
X64.65Y18.8G85X62.95Y18.8
G05
X121.65Y76.2G85X123.35Y76.2
G05
X121.65Y71.5G85X123.35Y71.5
G05
X121.65Y66.8G85X123.35Y66.8
G05
T10
X43.7Y174.67G85X43.7Y174.17
G05
X55.3Y174.67G85X55.3Y174.17
G05
X68.7Y174.67G85X68.7Y174.17
G05
X80.3Y174.67G85X80.3Y174.17
G05
X93.7Y174.67G85X93.7Y174.17
G05
X105.3Y174.67G85X105.3Y174.17
G05
X117.5Y20.75G85X117.5Y21.25
G05
X118.7Y174.67G85X118.7Y174.17
G05
X126.5Y20.75G85X126.5Y21.25
G05
X130.3Y174.67G85X130.3Y174.17
G05
M30
